<?xml version="1.0" standalone="no"?>
<!DOCTYPE svg PUBLIC "-//W3C//DTD SVG 20010904//EN"
 "http://www.w3.org/TR/2001/REC-SVG-20010904/DTD/svg10.dtd">
<svg version="1.0" xmlns="http://www.w3.org/2000/svg"
 width="356.000000pt" height="406.000000pt" viewBox="0 0 356.000000 406.000000"
 preserveAspectRatio="xMidYMid meet">

<g transform="translate(0.000000,406.000000) scale(0.100000,-0.100000)"
fill="#000000" stroke="none">
<path d="M1395 3573 c-158 -126 -291 -229 -296 -231 -5 -2 -9 47 -9 117 0 166
6 161 -189 161 -82 0 -157 -3 -166 -6 -40 -16 -45 -51 -45 -337 l0 -273 -210
-168 c-116 -92 -217 -178 -225 -189 -21 -30 -19 -73 5 -97 18 -18 33 -20 155
-20 l135 0 0 -637 c0 -490 3 -644 13 -663 7 -13 28 -35 46 -47 l34 -23 417 0
c383 0 420 1 439 17 16 14 93 177 207 438 3 6 -53 10 -157 10 -139 0 -163 2
-172 16 -8 13 22 105 132 400 78 211 149 394 157 407 14 21 21 22 127 22 76 0
119 -4 131 -13 18 -13 25 6 -211 -594 -4 -10 37 -13 173 -15 160 -3 179 -5
182 -20 2 -10 -80 -187 -182 -393 -102 -207 -191 -392 -198 -411 -12 -33 -10
-40 35 -129 l48 -95 -20 -44 c-10 -25 -56 -110 -100 -189 -45 -80 -81 -157
-81 -172 0 -40 50 -85 93 -85 19 0 44 8 55 18 39 33 262 442 262 479 0 10 -21
49 -45 87 -25 38 -45 80 -45 94 0 26 49 98 97 144 l28 27 382 3 383 3 32 33
33 32 3 650 2 650 134 0 c133 0 135 0 155 26 25 31 27 61 6 91 -8 12 -84 77
-167 144 -84 68 -392 318 -684 555 -292 238 -541 437 -552 443 -11 6 -30 11
-41 11 -11 0 -148 -102 -306 -227z"/>
<path d="M888 972 c-41 -27 -328 -262 -375 -308 -49 -47 -56 -85 -23 -127 24
-30 78 -44 108 -28 11 6 78 54 148 107 174 130 175 130 227 105 23 -12 98 -66
167 -121 130 -104 160 -117 212 -89 30 16 50 71 37 107 -15 44 -413 372 -452
372 -12 0 -34 -8 -49 -18z"/>
<path d="M2397 968 c-15 -12 -93 -173 -208 -432 -42 -94 -43 -113 -6 -153 23
-26 82 -31 110 -10 9 6 48 80 87 162 73 158 103 197 142 187 13 -3 94 -52 180
-110 143 -95 160 -104 191 -98 52 10 83 54 71 102 -6 24 -54 59 -393 292 -106
73 -140 84 -174 60z"/>
</g>
</svg>
