<?xml version="1.0" standalone="no"?>
<!DOCTYPE svg PUBLIC "-//W3C//DTD SVG 20010904//EN"
 "http://www.w3.org/TR/2001/REC-SVG-20010904/DTD/svg10.dtd">
<svg version="1.0" xmlns="http://www.w3.org/2000/svg"
 width="465.000000pt" height="455.000000pt" viewBox="0 0 465.000000 455.000000"
 preserveAspectRatio="xMidYMid meet">

<g transform="translate(0.000000,455.000000) scale(0.100000,-0.100000)"
fill="#000000" stroke="none">
<path d="M2047 3626 c-701 -549 -995 -782 -1024 -812 -41 -42 -44 -84 -8 -119
28 -28 32 -29 175 -30 l105 0 3 -368 2 -367 28 6 c40 9 99 38 169 82 96 61
159 77 293 77 138 -1 184 -16 318 -105 111 -73 179 -95 279 -87 83 6 143 32
241 101 169 121 343 133 537 37 55 -27 117 -54 138 -59 l37 -10 0 349 0 349
113 0 c124 0 154 10 175 54 26 54 8 72 -307 320 -283 222 -848 663 -939 733
-26 19 -55 33 -72 33 -21 0 -85 -45 -263 -184z"/>
<path d="M1720 1827 c-30 -7 -111 -40 -180 -74 -76 -38 -150 -67 -188 -74
-128 -24 -254 6 -361 87 -83 62 -147 60 -170 -7 -14 -41 -14 -172 0 -223 13
-49 143 -180 215 -218 71 -38 155 -58 244 -58 96 0 156 18 284 84 199 102 301
101 496 -9 121 -68 180 -85 294 -85 115 0 173 16 288 78 114 61 188 84 278 84
90 0 158 -21 250 -77 122 -73 230 -96 346 -71 125 26 231 93 315 199 l39 49 0
124 c0 119 -1 126 -25 149 -36 37 -71 32 -140 -19 -155 -117 -321 -125 -505
-24 -147 80 -150 81 -246 86 -111 5 -172 -10 -288 -74 -131 -70 -186 -86 -301
-86 -121 -1 -192 20 -310 88 -44 25 -97 52 -118 60 -56 20 -154 25 -217 11z"/>
<path d="M1720 1166 c-30 -7 -100 -36 -155 -64 -121 -64 -185 -82 -290 -82
-121 0 -186 23 -289 104 -69 53 -104 59 -141 22 -13 -13 -27 -41 -31 -61 -11
-62 2 -219 22 -262 41 -85 146 -159 259 -183 33 -7 457 -9 1280 -8 l1230 3 59
28 c81 38 141 89 176 150 29 50 30 57 30 178 0 141 -8 164 -65 175 -26 5 -40
-2 -90 -41 -93 -73 -155 -98 -256 -103 -110 -5 -174 12 -300 84 -173 98 -270
97 -481 -6 -178 -87 -292 -107 -441 -75 -75 16 -157 50 -227 95 -50 32 -145
60 -200 59 -19 0 -60 -6 -90 -13z"/>
</g>
</svg>
