<svg width="1024" height="768" viewBox="0 0 1024 768" fill="none" xmlns="http://www.w3.org/2000/svg">
  <!-- Sky background -->
  <defs>
    <linearGradient id="skyGradient" x1="0%" y1="0%" x2="0%" y2="100%">
      <stop offset="0%" style="stop-color:#E0F2FE;stop-opacity:1" />
      <stop offset="70%" style="stop-color:#BAE6FD;stop-opacity:1" />
      <stop offset="100%" style="stop-color:#7DD3FC;stop-opacity:1" />
    </linearGradient>
    <linearGradient id="grassGradient" x1="0%" y1="0%" x2="0%" y2="100%">
      <stop offset="0%" style="stop-color:#22C55E;stop-opacity:1" />
      <stop offset="100%" style="stop-color:#16A34A;stop-opacity:1" />
    </linearGradient>
    <linearGradient id="houseGradient" x1="0%" y1="0%" x2="0%" y2="100%">
      <stop offset="0%" style="stop-color:#FFFFFF;stop-opacity:1" />
      <stop offset="100%" style="stop-color:#F3F4F6;stop-opacity:1" />
    </linearGradient>
    <linearGradient id="roofGradient" x1="0%" y1="0%" x2="0%" y2="100%">
      <stop offset="0%" style="stop-color:#4B5563;stop-opacity:1" />
      <stop offset="100%" style="stop-color:#374151;stop-opacity:1" />
    </linearGradient>
  </defs>
  
  <!-- Sky -->
  <rect width="1024" height="500" fill="url(#skyGradient)" />
  
  <!-- Distant hills -->
  <path d="M0 350 Q200 300 400 320 Q600 340 800 310 Q900 300 1024 320 L1024 500 L0 500 Z" fill="#10B981" opacity="0.6"/>
  
  <!-- Middle hills -->
  <path d="M0 380 Q150 340 300 360 Q450 380 600 350 Q750 330 900 360 Q950 370 1024 365 L1024 500 L0 500 Z" fill="#16A34A" opacity="0.8"/>
  
  <!-- Main grass field -->
  <rect x="0" y="500" width="1024" height="268" fill="url(#grassGradient)" />
  
  <!-- House positioned center-left -->
  <g transform="translate(300, 350)">
    <!-- House base -->
    <rect x="0" y="50" width="160" height="120" fill="url(#houseGradient)" stroke="#D1D5DB" stroke-width="2"/>
    
    <!-- Roof -->
    <path d="M-20 50 L80 10 L180 50 L160 50 L80 30 L0 50 Z" fill="url(#roofGradient)"/>
    
    <!-- Door -->
    <rect x="65" y="110" width="30" height="60" fill="#8B5CF6" rx="2"/>
    <circle cx="88" cy="140" r="2" fill="#FCD34D"/>
    
    <!-- Windows -->
    <rect x="20" y="80" width="25" height="25" fill="#60A5FA" stroke="#374151" stroke-width="1"/>
    <rect x="115" y="80" width="25" height="25" fill="#60A5FA" stroke="#374151" stroke-width="1"/>
    
    <!-- Window crosses -->
    <line x1="32.5" y1="80" x2="32.5" y2="105" stroke="#374151" stroke-width="1"/>
    <line x1="20" y1="92.5" x2="45" y2="92.5" stroke="#374151" stroke-width="1"/>
    <line x1="127.5" y1="80" x2="127.5" y2="105" stroke="#374151" stroke-width="1"/>
    <line x1="115" y1="92.5" x2="140" y2="92.5" stroke="#374151" stroke-width="1"/>
    
    <!-- Chimney -->
    <rect x="120" y="20" width="15" height="40" fill="#DC2626"/>
  </g>
  
  <!-- Trees for depth -->
  <!-- Tree 1 - left side -->
  <g transform="translate(120, 420)">
    <rect x="18" y="40" width="8" height="30" fill="#92400E"/>
    <circle cx="22" cy="35" r="25" fill="#16A34A"/>
  </g>
  
  <!-- Tree 2 - right side -->
  <g transform="translate(750, 400)">
    <rect x="15" y="50" width="10" height="40" fill="#92400E"/>
    <circle cx="20" cy="45" r="30" fill="#22C55E"/>
  </g>
  
  <!-- Tree 3 - far right -->
  <g transform="translate(850, 430)">
    <rect x="12" y="35" width="6" height="25" fill="#92400E"/>
    <circle cx="15" cy="30" r="20" fill="#15803D"/>
  </g>
  
  <!-- Clouds -->
  <g opacity="0.8">
    <ellipse cx="150" cy="100" rx="30" ry="15" fill="white"/>
    <ellipse cx="170" cy="90" rx="40" ry="20" fill="white"/>
    <ellipse cx="130" cy="110" rx="25" ry="12" fill="white"/>
    
    <ellipse cx="600" cy="80" rx="35" ry="18" fill="white"/>
    <ellipse cx="620" cy="70" rx="45" ry="22" fill="white"/>
    <ellipse cx="580" cy="90" rx="30" ry="15" fill="white"/>
    
    <ellipse cx="900" cy="120" rx="25" ry="12" fill="white"/>
    <ellipse cx="915" cy="110" rx="30" ry="15" fill="white"/>
    <ellipse cx="885" cy="130" rx="20" ry="10" fill="white"/>
  </g>
  
  <!-- Sun -->
  <circle cx="850" cy="120" r="40" fill="#FCD34D" opacity="0.9"/>
  
  <!-- Grass details -->
  <g opacity="0.6">
    <!-- Grass blades scattered across field -->
    <path d="M100 720 Q102 715 100 710 Q98 715 100 720" fill="#15803D"/>
    <path d="M150 740 Q152 735 150 730 Q148 735 150 740" fill="#15803D"/>
    <path d="M200 725 Q202 720 200 715 Q198 720 200 725" fill="#15803D"/>
    <path d="M600 730 Q602 725 600 720 Q598 725 600 730" fill="#15803D"/>
    <path d="M700 745 Q702 740 700 735 Q698 740 700 745" fill="#15803D"/>
    <path d="M800 720 Q802 715 800 710 Q798 715 800 720" fill="#15803D"/>
  </g>
</svg>