<?xml version="1.0" standalone="no"?>
<!DOCTYPE svg PUBLIC "-//W3C//DTD SVG 20010904//EN"
 "http://www.w3.org/TR/2001/REC-SVG-20010904/DTD/svg10.dtd">
<svg version="1.0" xmlns="http://www.w3.org/2000/svg"
 width="390.000000pt" height="395.000000pt" viewBox="0 0 390.000000 395.000000"
 preserveAspectRatio="xMidYMid meet">

<g transform="translate(0.000000,395.000000) scale(0.100000,-0.100000)"
fill="#000000" stroke="none">
<path d="M1930 3609 c-106 -11 -272 -52 -368 -90 -201 -80 -353 -180 -508
-334 -158 -157 -266 -329 -333 -532 -90 -270 -93 -578 -9 -842 35 -110 104
-254 155 -324 l35 -48 -52 21 c-169 67 -319 220 -446 458 -63 118 -106 141
-120 64 -12 -63 4 -252 30 -353 110 -432 402 -728 831 -841 114 -30 129 -31
310 -32 202 0 302 15 413 64 25 11 47 18 50 15 3 -3 -33 -42 -79 -88 -107
-105 -218 -164 -446 -236 -89 -29 -172 -60 -184 -70 -34 -27 -20 -65 31 -85
126 -50 433 -66 620 -32 386 69 739 295 946 606 156 234 229 447 254 733 10
123 1 299 -17 331 -19 32 45 -37 82 -89 84 -118 121 -218 174 -464 34 -161 51
-197 81 -181 37 20 79 133 105 284 20 116 20 356 0 472 -105 607 -543 1023
-1141 1086 -186 19 -434 -17 -568 -82 -22 -11 -41 -18 -43 -17 -8 9 102 129
166 183 93 78 211 140 398 210 81 30 155 62 166 71 30 27 18 64 -28 90 -86 46
-329 72 -505 52z m148 -1176 c138 -56 253 -203 271 -348 24 -203 -69 -379
-246 -467 -65 -32 -72 -33 -188 -33 -116 0 -123 1 -192 34 -116 54 -205 162
-237 286 -44 167 7 334 138 452 122 110 295 139 454 76z"/>
</g>
</svg>
