<?xml version="1.0" standalone="no"?>
<!DOCTYPE svg PUBLIC "-//W3C//DTD SVG 20010904//EN"
 "http://www.w3.org/TR/2001/REC-SVG-20010904/DTD/svg10.dtd">
<svg version="1.0" xmlns="http://www.w3.org/2000/svg"
 width="394.000000pt" height="450.000000pt" viewBox="0 0 394.000000 450.000000"
 preserveAspectRatio="xMidYMid meet">

<g transform="translate(0.000000,450.000000) scale(0.100000,-0.100000)"
fill="#000000" stroke="none">
<path d="M1886 4111 c-14 -16 -21 -46 -28 -123 -21 -248 -95 -442 -280 -726
-104 -160 -178 -305 -208 -410 -13 -45 -27 -82 -31 -82 -8 0 -41 70 -57 120
-20 63 -42 211 -42 286 0 96 -11 124 -48 124 -56 0 -210 -166 -344 -368 -398
-604 -468 -1274 -180 -1731 182 -289 459 -462 817 -511 103 -14 150 3 84 31
-118 48 -287 228 -359 380 -73 157 -94 366 -56 549 23 110 90 312 117 357 19
30 26 34 57 31 34 -3 36 -5 71 -93 56 -138 126 -235 172 -235 14 0 15 14 11
123 -5 145 6 222 53 364 41 121 81 204 146 298 80 116 233 255 280 255 11 0
28 -9 40 -21 19 -19 20 -28 14 -132 -11 -183 20 -307 115 -467 136 -230 195
-386 207 -552 3 -49 10 -88 15 -88 22 0 97 93 136 168 36 68 47 82 67 82 61 0
100 -131 100 -335 0 -154 -15 -219 -79 -350 -71 -143 -160 -232 -321 -317 -69
-36 -69 -37 -42 -47 44 -17 216 8 347 51 146 47 283 131 402 246 288 278 388
679 287 1147 -28 130 -71 264 -156 484 -41 107 -86 237 -99 290 -25 99 -41
121 -81 121 -40 0 -69 -27 -145 -138 -68 -99 -181 -232 -197 -232 -4 0 -3 35
2 78 10 86 -3 265 -29 391 -38 188 -131 405 -247 576 -74 109 -276 314 -367
373 -83 53 -119 61 -144 33z"/>
</g>
</svg>
